<?xml version="1.0" encoding="utf-8"?>
<!-- Svg Vector Icons : http://www.sfont.cn -->
<!DOCTYPE svg PUBLIC "-//W3C//DTD SVG 1.1//EN" "http://www.w3.org/Graphics/SVG/1.1/DTD/svg11.dtd">
<svg version="1.1" xmlns="http://www.w3.org/2000/svg" xmlns:xlink="http://www.w3.org/1999/xlink" x="0px" y="0px" viewBox="0 0 1000 1000" enable-background="new 0 0 1000 1000" xml:space="preserve">
<metadata> Svg Vector Icons : http://www.sfont.cn </metadata>
<g><path d="M222,871c-83.4,0.4-123.3-71.7-86.2-149.7c43.4-91.5,38.3-105.3-56.7-128.8c-50.7-12.6-68.6-43.7-69-93.2c-0.4-51.6,23-79.5,72.3-91.4c88.6-21.4,96.4-43.1,57.3-125.1c-19.9-41.5-32-83.4,9.8-125.5c43.7-44.1,86.4-32.9,131.2-11c72.9,35.5,111.7,21.1,125.6-56.5c10-55.1,36.7-79.1,91.5-80c57.9-0.9,86.6,23.9,97.8,82c14.6,76.1,50,89.3,120,54.2c45.7-22.9,90.3-32.8,131.2,11.3c40.1,43.1,29.6,85.5,4.6,131.1C817.7,350,834.6,390.8,903.9,406c54.6,12,86.3,35.8,86.1,96c-0.2,60.2-31.7,82.4-86.9,94.2c-70.6,14.9-83.5,52.4-50.4,117c23.1,45,35.4,89.1-8,130.9c-42.2,40.6-86.3,32.1-132.3,8.8c-65.1-33.1-101.3-19.8-116.6,51c-11.9,54.7-33.6,87.1-94.5,86.2c-59.1-0.8-84.8-29.1-95.8-85.4c-14-71.7-55.6-87.9-122.3-50.6C262.2,865.7,240.6,867.8,222,871z M810.1,239.9c2.4-49.3-25.6-62.5-74-41.7c-111.5,47.8-144.5,34-187.8-72.3c-9.1-22.5-8.2-58.3-50.5-55.9c-38.5,2.2-32.2,35.1-41,55.6c-44.1,103.5-92.1,122.8-192,76.6c-21.7-10-47.8-28.6-70.5-6.7c-22.2,21.6-8.2,48.3,2.7,71.1c48.9,103,32.2,145.2-72.1,188.7c-20.4,8.5-53,4.3-55,42.2s30,37.9,50.1,47.5c118,55.7,123.8,69.5,75.4,191.1c-8.5,21.3-16.3,45.5,0.7,65.2c16.3,19,38.7,8.4,57,1.7c130.1-47.8,156.3-37.8,210.3,87.3c8.2,19,9.2,38.5,37.5,39.2c28.4,0.7,31.9-19.8,40-37.8c5.2-11.6,11.3-22.9,15.2-35c25.1-78.3,91.8-106.9,164.5-67.4c27.7,15.2,58.5,36.5,81.6,8.8c20.2-24.3,3-55.3-13.4-83.9c-38.5-67.1-7.6-131.5,66.6-158.5c28.1-10.2,70.2-11,73.4-53.9c3.9-51.1-46.4-40.1-71.6-51.6c-78.7-35.9-102.3-94.9-61.7-174.4C802.3,262.7,806.9,248.1,810.1,239.9z"/><path d="M683.2,502.1c-1.7,98.5-89.1,182.7-187.3,180.4c-96-2.1-181.9-93.2-178.5-188.9c3.4-94,89.9-177.4,183.4-176.8C598.1,317.5,684.9,405.7,683.2,502.1z M623.2,495.8c-1.5-67.1-59.4-120.5-128.3-118.3c-67.2,2-120.6,60.5-118,129.3c2.4,63.1,59.7,116,124.8,115.3C569.9,621.4,624.7,564.4,623.2,495.8z"/></g>
</svg>